<svg data-v-fde0c5aa="" xmlns="http://www.w3.org/2000/svg" viewBox="0 0 300 300" class="iconLeft"><!----><defs data-v-fde0c5aa=""><!----></defs><rect data-v-fde0c5aa="" fill="transparent" x="0" y="0" width="300px" height="300px" class="logo-background-square"></rect><defs data-v-fde0c5aa=""><!----></defs><g data-v-fde0c5aa="" id="a7bf6f68-2076-4319-9dcd-4a7aa648ca93" fill="#000000" transform="matrix(2.1254383557600542,0,0,2.1254383557600542,101.69734412803575,128.42680149982584)"><path d="M3.33 12.36L3.33 4.70L3.33 4.70Q3.33 4.48 3.17 4.38L3.17 4.38L3.17 4.38Q3.01 4.27 2.82 4.27L2.82 4.27L2.82 4.27Q2.43 4.27 2.07 4.39L2.07 4.39L2.07 4.39Q1.71 4.50 1.42 4.69L1.42 4.69L1.42 4.69Q1.13 4.89 0.96 5.16L0.96 5.16L0.96 5.16Q0.79 5.43 0.79 5.74L0.79 5.74L0.79 5.74Q0.79 5.96 0.84 6.09L0.84 6.09L0.84 6.09Q0.90 6.22 0.98 6.29L0.98 6.29L0.98 6.29Q1.05 6.35 1.13 6.37L1.13 6.37L1.13 6.37Q1.21 6.38 1.24 6.38L1.24 6.38L1.24 6.38Q1.42 6.38 1.52 6.33L1.52 6.33L1.52 6.33Q1.63 6.27 1.72 6.20L1.72 6.20L1.72 6.20Q1.81 6.14 1.89 6.08L1.89 6.08L1.89 6.08Q1.97 6.02 2.07 6.02L2.07 6.02L2.07 6.02Q2.15 6.02 2.25 6.06L2.25 6.06L2.25 6.06Q2.34 6.10 2.42 6.18L2.42 6.18L2.42 6.18Q2.50 6.26 2.55 6.40L2.55 6.40L2.55 6.40Q2.60 6.53 2.60 6.72L2.60 6.72L2.60 6.72Q2.60 6.99 2.50 7.19L2.50 7.19L2.50 7.19Q2.39 7.39 2.23 7.52L2.23 7.52L2.23 7.52Q2.06 7.66 1.84 7.72L1.84 7.72L1.84 7.72Q1.63 7.79 1.42 7.79L1.42 7.79L1.42 7.79Q1.09 7.79 0.82 7.67L0.82 7.67L0.82 7.67Q0.56 7.56 0.38 7.36L0.38 7.36L0.38 7.36Q0.19 7.16 0.10 6.90L0.10 6.90L0.10 6.90Q0 6.63 0 6.33L0 6.33L0 6.33Q0 5.48 0.43 4.93L0.43 4.93L0.43 4.93Q0.86 4.38 1.60 4.06L1.60 4.06L1.60 4.06Q2.34 3.74 3.33 3.62L3.33 3.62L3.33 3.62Q4.32 3.50 5.43 3.50L5.43 3.50L5.43 3.50Q6.71 3.50 7.73 3.76L7.73 3.76L7.73 3.76Q8.76 4.01 9.50 4.59L9.50 4.59L9.50 4.59Q10.23 5.16 10.62 6.09L10.62 6.09L10.62 6.09Q11.02 7.01 11.02 8.35L11.02 8.35L11.02 8.35Q11.02 9.68 10.60 10.71L10.60 10.71L10.60 10.71Q10.18 11.74 9.45 12.44L9.45 12.44L9.45 12.44Q8.72 13.15 7.74 13.51L7.74 13.51L7.74 13.51Q6.76 13.88 5.64 13.88L5.64 13.88L5.64 13.88Q4.89 13.88 4.44 13.81L4.44 13.81L4.44 13.81Q3.99 13.73 3.74 13.56L3.74 13.56L3.74 13.56Q3.49 13.38 3.41 13.09L3.41 13.09L3.41 13.09Q3.33 12.80 3.33 12.36L3.33 12.36ZM5.58 5.00L5.58 12.42L5.58 12.42Q5.58 12.81 5.76 12.98L5.76 12.98L5.76 12.98Q5.93 13.15 6.28 13.15L6.28 13.15L6.28 13.15Q6.79 13.15 7.22 12.92L7.22 12.92L7.22 12.92Q7.66 12.69 7.97 12.14L7.97 12.14L7.97 12.14Q8.29 11.59 8.46 10.68L8.46 10.68L8.46 10.68Q8.64 9.76 8.64 8.37L8.64 8.37L8.64 8.37Q8.64 7.44 8.53 6.76L8.53 6.76L8.53 6.76Q8.42 6.08 8.23 5.61L8.23 5.61L8.23 5.61Q8.05 5.13 7.81 4.84L7.81 4.84L7.81 4.84Q7.57 4.54 7.33 4.37L7.33 4.37L7.33 4.37Q7.08 4.20 6.85 4.15L6.85 4.15L6.85 4.15Q6.61 4.09 6.43 4.09L6.43 4.09L6.43 4.09Q5.98 4.09 5.78 4.29L5.78 4.29L5.78 4.29Q5.58 4.48 5.58 5.00L5.58 5.00ZM20.78 8.90L20.78 9.51L19.80 9.51L19.80 13.52L19.80 13.52Q19.80 14.45 19.48 15.15L19.48 15.15L19.48 15.15Q19.17 15.84 18.60 16.30L18.60 16.30L18.60 16.30Q18.04 16.76 17.27 16.99L17.27 16.99L17.27 16.99Q16.50 17.22 15.59 17.22L15.59 17.22L15.59 17.22Q15.24 17.22 14.92 17.16L14.92 17.16L14.92 17.16Q14.59 17.10 14.35 17.00L14.35 17.00L14.35 17.00Q14.10 16.90 13.96 16.76L13.96 16.76L13.96 16.76Q13.81 16.62 13.81 16.45L13.81 16.45L13.81 16.45Q13.81 16.32 13.84 16.20L13.84 16.20L13.84 16.20Q13.88 16.07 13.95 15.97L13.95 15.97L13.95 15.97Q14.01 15.87 14.11 15.80L14.11 15.80L14.11 15.80Q14.21 15.74 14.33 15.74L14.33 15.74L14.33 15.74Q14.42 15.74 14.47 15.81L14.47 15.81L14.47 15.81Q14.53 15.89 14.59 16.00L14.59 16.00L14.59 16.00Q14.65 16.11 14.73 16.24L14.73 16.24L14.73 16.24Q14.81 16.37 14.94 16.48L14.94 16.48L14.94 16.48Q15.06 16.59 15.24 16.67L15.24 16.67L15.24 16.67Q15.42 16.74 15.68 16.74L15.68 16.74L15.68 16.74Q16.21 16.74 16.61 16.55L16.61 16.55L16.61 16.55Q17.01 16.36 17.28 16.01L17.28 16.01L17.28 16.01Q17.55 15.67 17.69 15.19L17.69 15.19L17.69 15.19Q17.83 14.70 17.83 14.12L17.83 14.12L17.83 13.71L17.83 13.71Q17.55 13.77 17.26 13.80L17.26 13.80L17.26 13.80Q16.97 13.83 16.60 13.83L16.60 13.83L16.60 13.83Q15.67 13.83 14.86 13.55L14.86 13.55L14.86 13.55Q14.05 13.26 13.44 12.67L13.44 12.67L13.44 12.67Q12.84 12.07 12.49 11.15L12.49 11.15L12.49 11.15Q12.14 10.23 12.14 8.95L12.14 8.95L12.14 8.95Q12.14 8.06 12.33 7.31L12.33 7.31L12.33 7.31Q12.52 6.56 12.87 5.95L12.87 5.95L12.87 5.95Q13.21 5.35 13.68 4.89L13.68 4.89L13.68 4.89Q14.14 4.43 14.69 4.12L14.69 4.12L14.69 4.12Q15.24 3.81 15.86 3.66L15.86 3.66L15.86 3.66Q16.47 3.50 17.10 3.50L17.10 3.50L17.10 3.50Q17.69 3.50 18.20 3.61L18.20 3.61L18.20 3.61Q18.72 3.73 19.10 3.94L19.10 3.94L19.10 3.94Q19.48 4.16 19.69 4.47L19.69 4.47L19.69 4.47Q19.91 4.79 19.91 5.20L19.91 5.20L19.91 5.20Q19.91 5.38 19.85 5.58L19.85 5.58L19.85 5.58Q19.78 5.78 19.66 5.95L19.66 5.95L19.66 5.95Q19.54 6.12 19.35 6.22L19.35 6.22L19.35 6.22Q19.16 6.33 18.92 6.33L18.92 6.33L18.92 6.33Q18.62 6.33 18.48 6.16L18.48 6.16L18.48 6.16Q18.34 6.00 18.27 5.75L18.27 5.75L18.27 5.75Q18.20 5.50 18.16 5.21L18.16 5.21L18.16 5.21Q18.13 4.92 18.05 4.67L18.05 4.67L18.05 4.67Q17.96 4.42 17.80 4.26L17.80 4.26L17.80 4.26Q17.63 4.09 17.31 4.09L17.31 4.09L17.31 4.09Q17.07 4.09 16.77 4.20L16.77 4.20L16.77 4.20Q16.47 4.32 16.16 4.57L16.16 4.57L16.16 4.57Q15.85 4.82 15.56 5.21L15.56 5.21L15.56 5.21Q15.26 5.59 15.03 6.13L15.03 6.13L15.03 6.13Q14.80 6.67 14.66 7.37L14.66 7.37L14.66 7.37Q14.52 8.07 14.52 8.95L14.52 8.95L14.52 8.95Q14.52 9.92 14.64 10.61L14.64 10.61L14.64 10.61Q14.77 11.29 14.97 11.75L14.97 11.75L14.97 11.75Q15.17 12.22 15.43 12.49L15.43 12.49L15.43 12.49Q15.70 12.76 15.98 12.89L15.98 12.89L15.98 12.89Q16.26 13.03 16.53 13.07L16.53 13.07L16.53 13.07Q16.81 13.10 17.04 13.10L17.04 13.10L17.04 13.10Q17.28 13.10 17.48 13.07L17.48 13.07L17.48 13.07Q17.68 13.03 17.83 12.96L17.83 12.96L17.83 9.51L16.63 9.51L16.63 8.90L20.78 8.90ZM27.10 8.07L27.10 8.07L27.10 8.07Q27.36 7.67 27.66 7.35L27.66 7.35L27.66 7.35Q27.78 7.21 27.92 7.08L27.92 7.08L27.92 7.08Q28.07 6.95 28.22 6.85L28.22 6.85L28.22 6.85Q28.38 6.75 28.54 6.69L28.54 6.69L28.54 6.69Q28.70 6.62 28.87 6.62L28.87 6.62L28.87 6.62Q29.22 6.62 29.42 6.83L29.42 6.83L29.42 6.83Q29.61 7.04 29.61 7.42L29.61 7.42L29.61 7.42Q29.61 7.65 29.58 7.86L29.58 7.86L29.58 7.86Q29.54 8.08 29.43 8.39L29.43 8.39L29.24 8.39L29.24 8.39Q29.20 8.18 29.05 8.04L29.05 8.04L29.05 8.04Q28.90 7.90 28.61 7.90L28.61 7.90L28.61 7.90Q28.40 7.90 28.19 7.97L28.19 7.97L28.19 7.97Q27.99 8.05 27.79 8.17L27.79 8.17L27.79 8.17Q27.60 8.29 27.42 8.42L27.42 8.42L27.42 8.42Q27.25 8.56 27.10 8.68L27.10 8.68L27.10 13.12L27.10 13.12Q27.10 13.21 27.08 13.33L27.08 13.33L27.08 13.33Q27.05 13.45 26.94 13.56L26.94 13.56L26.94 13.56Q26.84 13.67 26.63 13.75L26.63 13.75L26.63 13.75Q26.42 13.83 26.06 13.83L26.06 13.83L26.06 13.83Q25.70 13.83 25.49 13.74L25.49 13.74L25.49 13.74Q25.28 13.66 25.17 13.54L25.17 13.54L25.17 13.54Q25.06 13.43 25.03 13.30L25.03 13.30L25.03 13.30Q25.01 13.18 25.01 13.10L25.01 13.10L25.01 7.83L25.01 7.83Q25.01 7.63 24.91 7.48L24.91 7.48L24.91 7.48Q24.82 7.33 24.60 7.33L24.60 7.33L24.60 7.33Q24.49 7.33 24.40 7.38L24.40 7.38L24.40 7.38Q24.32 7.42 24.23 7.49L24.23 7.49L24.08 7.32L24.08 7.32Q24.24 7.19 24.44 7.06L24.44 7.06L24.44 7.06Q24.63 6.94 24.86 6.84L24.86 6.84L24.86 6.84Q25.08 6.75 25.34 6.69L25.34 6.69L25.34 6.69Q25.60 6.62 25.89 6.62L25.89 6.62L25.89 6.62Q26.18 6.62 26.39 6.70L26.39 6.70L26.39 6.70Q26.60 6.78 26.73 6.91L26.73 6.91L26.73 6.91Q26.87 7.03 26.94 7.19L26.94 7.19L26.94 7.19Q27.02 7.35 27.05 7.51L27.05 7.51L27.05 7.51Q27.09 7.67 27.10 7.82L27.10 7.82L27.10 7.82Q27.10 7.96 27.10 8.07ZM34.67 8.99L31.96 10.58L31.96 10.58Q31.96 10.80 32.03 11.06L32.03 11.06L32.03 11.06Q32.09 11.31 32.22 11.57L32.22 11.57L32.22 11.57Q32.34 11.83 32.52 12.07L32.52 12.07L32.52 12.07Q32.70 12.30 32.94 12.49L32.94 12.49L32.94 12.49Q33.17 12.67 33.46 12.78L33.46 12.78L33.46 12.78Q33.75 12.89 34.09 12.89L34.09 12.89L34.09 12.89Q34.33 12.89 34.54 12.84L34.54 12.84L34.54 12.84Q34.74 12.78 34.92 12.69L34.92 12.69L34.92 12.69Q35.10 12.59 35.26 12.47L35.26 12.47L35.26 12.47Q35.42 12.34 35.59 12.20L35.59 12.20L35.76 12.36L35.76 12.36Q35.60 12.57 35.36 12.82L35.36 12.82L35.36 12.82Q35.11 13.08 34.76 13.30L34.76 13.30L34.76 13.30Q34.41 13.52 33.95 13.67L33.95 13.67L33.95 13.67Q33.48 13.82 32.89 13.82L32.89 13.82L32.89 13.82Q32.29 13.82 31.73 13.60L31.73 13.60L31.73 13.60Q31.17 13.38 30.73 12.95L30.73 12.95L30.73 12.95Q30.29 12.52 30.03 11.88L30.03 11.88L30.03 11.88Q29.76 11.24 29.76 10.38L29.76 10.38L29.76 10.38Q29.76 9.75 29.92 9.24L29.92 9.24L29.92 9.24Q30.08 8.72 30.35 8.30L30.35 8.30L30.35 8.30Q30.62 7.88 30.98 7.57L30.98 7.57L30.98 7.57Q31.34 7.25 31.73 7.04L31.73 7.04L31.73 7.04Q32.13 6.84 32.54 6.73L32.54 6.73L32.54 6.73Q32.96 6.62 33.34 6.62L33.34 6.62L33.34 6.62Q33.84 6.62 34.22 6.73L34.22 6.73L34.22 6.73Q34.60 6.84 34.85 7.03L34.85 7.03L34.85 7.03Q35.10 7.21 35.22 7.45L35.22 7.45L35.22 7.45Q35.34 7.70 35.34 7.96L35.34 7.96L35.34 7.96Q35.34 8.29 35.16 8.54L35.16 8.54L35.16 8.54Q34.97 8.80 34.67 8.99L34.67 8.99ZM31.90 10.02L33.34 9.19L33.34 9.19Q33.43 9.14 33.49 9.09L33.49 9.09L33.49 9.09Q33.54 9.04 33.58 8.97L33.58 8.97L33.58 8.97Q33.61 8.89 33.63 8.79L33.63 8.79L33.63 8.79Q33.65 8.68 33.65 8.52L33.65 8.52L33.65 8.52Q33.65 8.35 33.61 8.15L33.61 8.15L33.61 8.15Q33.57 7.94 33.48 7.75L33.48 7.75L33.48 7.75Q33.39 7.57 33.26 7.44L33.26 7.44L33.26 7.44Q33.12 7.32 32.93 7.32L32.93 7.32L32.93 7.32Q32.68 7.32 32.51 7.47L32.51 7.47L32.51 7.47Q32.33 7.62 32.22 7.85L32.22 7.85L32.22 7.85Q32.11 8.08 32.04 8.38L32.04 8.38L32.04 8.38Q31.98 8.67 31.94 8.98L31.94 8.98L31.94 8.98Q31.91 9.28 31.90 9.55L31.90 9.55L31.90 9.55Q31.90 9.83 31.90 10.02L31.90 10.02ZM39.76 11.85L39.76 10.18L39.76 10.18Q39.76 10.01 39.65 9.92L39.65 9.92L39.65 9.92Q39.54 9.83 39.37 9.83L39.37 9.83L39.37 9.83Q39.13 9.83 38.91 9.94L38.91 9.94L38.91 9.94Q38.70 10.05 38.53 10.26L38.53 10.26L38.53 10.26Q38.37 10.47 38.27 10.78L38.27 10.78L38.27 10.78Q38.18 11.09 38.18 11.50L38.18 11.50L38.18 11.50Q38.18 11.90 38.24 12.16L38.24 12.16L38.24 12.16Q38.29 12.42 38.39 12.57L38.39 12.57L38.39 12.57Q38.49 12.73 38.62 12.79L38.62 12.79L38.62 12.79Q38.75 12.85 38.90 12.85L38.90 12.85L38.90 12.85Q39.07 12.85 39.23 12.76L39.23 12.76L39.23 12.76Q39.39 12.67 39.50 12.52L39.50 12.52L39.50 12.52Q39.62 12.38 39.69 12.20L39.69 12.20L39.69 12.20Q39.76 12.02 39.76 11.85L39.76 11.85ZM38.67 7.18L38.67 7.18L38.67 7.18Q38.44 7.18 38.24 7.24L38.24 7.24L38.24 7.24Q38.04 7.29 37.90 7.38L37.90 7.38L37.90 7.38Q37.75 7.46 37.67 7.56L37.67 7.56L37.67 7.56Q37.59 7.66 37.59 7.75L37.59 7.75L37.59 7.75Q37.59 7.85 37.70 7.89L37.70 7.89L37.70 7.89Q37.80 7.94 37.93 7.99L37.93 7.99L37.93 7.99Q38.06 8.05 38.17 8.16L38.17 8.16L38.17 8.16Q38.27 8.26 38.27 8.48L38.27 8.48L38.27 8.48Q38.27 8.63 38.22 8.75L38.22 8.75L38.22 8.75Q38.16 8.87 38.06 8.96L38.06 8.96L38.06 8.96Q37.96 9.05 37.83 9.10L37.83 9.10L37.83 9.10Q37.69 9.15 37.55 9.15L37.55 9.15L37.55 9.15Q37.17 9.15 36.93 8.89L36.93 8.89L36.93 8.89Q36.70 8.63 36.70 8.20L36.70 8.20L36.70 8.20Q36.70 7.79 36.91 7.49L36.91 7.49L36.91 7.49Q37.13 7.19 37.48 7L37.48 7L37.48 7Q37.84 6.81 38.28 6.72L38.28 6.72L38.28 6.72Q38.73 6.62 39.17 6.62L39.17 6.62L39.17 6.62Q39.70 6.62 40.19 6.74L40.19 6.74L40.19 6.74Q40.67 6.86 41.05 7.11L41.05 7.11L41.05 7.11Q41.42 7.36 41.64 7.75L41.64 7.75L41.64 7.75Q41.86 8.14 41.86 8.70L41.86 8.70L41.86 12.56L41.86 12.56Q41.86 12.62 41.87 12.69L41.87 12.69L41.87 12.69Q41.88 12.77 41.90 12.83L41.90 12.83L41.90 12.83Q41.93 12.89 41.99 12.93L41.99 12.93L41.99 12.93Q42.04 12.97 42.14 12.97L42.14 12.97L42.14 12.97Q42.27 12.97 42.37 12.88L42.37 12.88L42.37 12.88Q42.48 12.79 42.56 12.69L42.56 12.69L42.73 12.84L42.73 12.84Q42.63 12.98 42.49 13.15L42.49 13.15L42.49 13.15Q42.34 13.32 42.14 13.47L42.14 13.47L42.14 13.47Q41.93 13.62 41.66 13.73L41.66 13.73L41.66 13.73Q41.38 13.83 41.04 13.83L41.04 13.83L41.04 13.83Q40.61 13.83 40.27 13.57L40.27 13.57L40.27 13.57Q39.94 13.32 39.83 12.78L39.83 12.78L39.83 12.78Q39.61 13.08 39.38 13.28L39.38 13.28L39.38 13.28Q39.14 13.47 38.90 13.60L38.90 13.60L38.90 13.60Q38.65 13.72 38.40 13.77L38.40 13.77L38.40 13.77Q38.15 13.83 37.90 13.83L37.90 13.83L37.90 13.83Q37.57 13.83 37.26 13.73L37.26 13.73L37.26 13.73Q36.96 13.62 36.71 13.40L36.71 13.40L36.71 13.40Q36.47 13.18 36.32 12.82L36.32 12.82L36.32 12.82Q36.18 12.47 36.18 11.96L36.18 11.96L36.18 11.96Q36.18 11.33 36.42 10.94L36.42 10.94L36.42 10.94Q36.67 10.54 37.07 10.27L37.07 10.27L37.07 10.27Q37.47 10.00 37.98 9.81L37.98 9.81L37.98 9.81Q38.49 9.62 39.02 9.41L39.02 9.41L39.02 9.41Q39.42 9.25 39.60 8.94L39.60 8.94L39.60 8.94Q39.78 8.63 39.78 8.30L39.78 8.30L39.78 8.30Q39.78 7.79 39.48 7.49L39.48 7.49L39.48 7.49Q39.18 7.18 38.67 7.18ZM45.77 4.21L45.77 13.12L45.77 13.12Q45.77 13.21 45.74 13.33L45.74 13.33L45.74 13.33Q45.71 13.45 45.59 13.56L45.59 13.56L45.59 13.56Q45.48 13.67 45.26 13.75L45.26 13.75L45.26 13.75Q45.05 13.83 44.69 13.83L44.69 13.83L44.69 13.83Q44.32 13.83 44.12 13.74L44.12 13.74L44.12 13.74Q43.91 13.66 43.81 13.54L43.81 13.54L43.81 13.54Q43.72 13.43 43.69 13.30L43.69 13.30L43.69 13.30Q43.67 13.18 43.67 13.10L43.67 13.10L43.67 4.29L43.67 4.29Q43.67 4.09 43.58 3.94L43.58 3.94L43.58 3.94Q43.48 3.79 43.26 3.79L43.26 3.79L43.26 3.79Q43.15 3.79 43.06 3.83L43.06 3.83L43.06 3.83Q42.98 3.87 42.88 3.94L42.88 3.94L42.75 3.78L42.75 3.78Q42.90 3.65 43.09 3.52L43.09 3.52L43.09 3.52Q43.29 3.40 43.51 3.30L43.51 3.30L43.51 3.30Q43.74 3.21 44.00 3.14L44.00 3.14L44.00 3.14Q44.26 3.08 44.55 3.08L44.55 3.08L44.55 3.08Q44.99 3.08 45.24 3.20L45.24 3.20L45.24 3.20Q45.49 3.32 45.60 3.50L45.60 3.50L45.60 3.50Q45.72 3.67 45.74 3.87L45.74 3.87L45.74 3.87Q45.77 4.06 45.77 4.21L45.77 4.21ZM49.68 7.17L49.68 7.17L49.68 7.17Q49.53 7.17 49.39 7.21L49.39 7.21L49.39 7.21Q49.25 7.25 49.14 7.35L49.14 7.35L49.14 7.35Q49.03 7.44 48.97 7.58L48.97 7.58L48.97 7.58Q48.90 7.72 48.90 7.91L48.90 7.91L48.90 7.91Q48.90 8.18 49.10 8.44L49.10 8.44L49.10 8.44Q49.29 8.70 49.58 8.99L49.58 8.99L49.58 8.99Q49.88 9.27 50.21 9.57L50.21 9.57L50.21 9.57Q50.55 9.88 50.84 10.22L50.84 10.22L50.84 10.22Q51.13 10.55 51.33 10.94L51.33 10.94L51.33 10.94Q51.52 11.32 51.52 11.76L51.52 11.76L51.52 11.76Q51.52 12.25 51.35 12.63L51.35 12.63L51.35 12.63Q51.19 13.02 50.88 13.28L50.88 13.28L50.88 13.28Q50.57 13.55 50.12 13.69L50.12 13.69L50.12 13.69Q49.68 13.83 49.14 13.83L49.14 13.83L49.14 13.83Q48.67 13.83 48.29 13.70L48.29 13.70L48.29 13.70Q47.91 13.56 47.61 13.37L47.61 13.37L47.61 13.37Q47.31 13.17 47.10 12.95L47.10 12.95L47.10 12.95Q46.89 12.74 46.77 12.56L46.77 12.56L47.01 12.39L47.01 12.39Q47.10 12.49 47.24 12.61L47.24 12.61L47.24 12.61Q47.37 12.73 47.54 12.83L47.54 12.83L47.54 12.83Q47.71 12.93 47.90 13.00L47.90 13.00L47.90 13.00Q48.09 13.06 48.29 13.06L48.29 13.06L48.29 13.06Q48.78 13.06 49.10 12.83L49.10 12.83L49.10 12.83Q49.41 12.59 49.41 12.13L49.41 12.13L49.41 12.13Q49.41 11.87 49.24 11.59L49.24 11.59L49.24 11.59Q49.07 11.31 48.81 11.02L48.81 11.02L48.81 11.02Q48.55 10.73 48.25 10.41L48.25 10.41L48.25 10.41Q47.95 10.10 47.69 9.76L47.69 9.76L47.69 9.76Q47.43 9.43 47.26 9.07L47.26 9.07L47.26 9.07Q47.09 8.72 47.09 8.33L47.09 8.33L47.09 8.33Q47.09 7.90 47.26 7.58L47.26 7.58L47.26 7.58Q47.43 7.26 47.73 7.05L47.73 7.05L47.73 7.05Q48.02 6.84 48.39 6.73L48.39 6.73L48.39 6.73Q48.76 6.62 49.16 6.62L49.16 6.62L49.16 6.62Q49.62 6.62 49.99 6.71L49.99 6.71L49.99 6.71Q50.37 6.79 50.64 6.96L50.64 6.96L50.64 6.96Q50.91 7.12 51.05 7.38L51.05 7.38L51.05 7.38Q51.20 7.63 51.20 7.96L51.20 7.96L51.20 7.96Q51.20 8.22 51.03 8.42L51.03 8.42L51.03 8.42Q50.86 8.61 50.55 8.61L50.55 8.61L50.55 8.61Q50.26 8.61 50.10 8.48L50.10 8.48L50.10 8.48Q49.95 8.35 49.95 8.13L49.95 8.13L49.95 8.13Q49.95 7.99 50.02 7.91L50.02 7.91L50.02 7.91Q50.09 7.83 50.18 7.78L50.18 7.78L50.18 7.78Q50.27 7.72 50.34 7.69L50.34 7.69L50.34 7.69Q50.42 7.65 50.42 7.59L50.42 7.59L50.42 7.59Q50.42 7.40 50.21 7.28L50.21 7.28L50.21 7.28Q50.00 7.17 49.68 7.17ZM55.93 7.21L54.87 7.21L54.87 12.26L54.87 12.26Q54.87 12.63 55.01 12.77L55.01 12.77L55.01 12.77Q55.15 12.91 55.38 12.91L55.38 12.91L55.38 12.91Q55.57 12.91 55.71 12.80L55.71 12.80L55.71 12.80Q55.86 12.70 55.96 12.57L55.96 12.57L55.96 12.57Q56.08 12.43 56.17 12.24L56.17 12.24L56.38 12.33L56.38 12.33Q56.28 12.55 56.14 12.81L56.14 12.81L56.14 12.81Q56 13.07 55.77 13.29L55.77 13.29L55.77 13.29Q55.54 13.51 55.18 13.67L55.18 13.67L55.18 13.67Q54.83 13.82 54.30 13.82L54.30 13.82L54.30 13.82Q54.00 13.82 53.72 13.73L53.72 13.73L53.72 13.73Q53.44 13.64 53.23 13.45L53.23 13.45L53.23 13.45Q53.01 13.25 52.88 12.97L52.88 12.97L52.88 12.97Q52.75 12.68 52.75 12.28L52.75 12.28L52.75 7.21L51.99 7.21L51.99 6.72L51.99 6.72Q52.18 6.72 52.52 6.62L52.52 6.62L52.52 6.62Q52.86 6.52 53.22 6.29L53.22 6.29L53.22 6.29Q53.58 6.06 53.89 5.67L53.89 5.67L53.89 5.67Q54.20 5.28 54.33 4.70L54.33 4.70L54.87 4.70L54.87 6.72L55.99 6.72L55.99 6.72Q56.53 6.72 56.53 6.54L56.53 6.54L56.53 6.54Q56.53 6.47 56.46 6.44L56.46 6.44L56.46 6.44Q56.40 6.42 56.31 6.38L56.31 6.38L56.31 6.38Q56.23 6.34 56.16 6.28L56.16 6.28L56.16 6.28Q56.09 6.21 56.09 6.05L56.09 6.05L56.09 6.05Q56.09 5.86 56.21 5.75L56.21 5.75L56.21 5.75Q56.33 5.64 56.52 5.64L56.52 5.64L56.52 5.64Q56.64 5.64 56.73 5.69L56.73 5.69L56.73 5.69Q56.83 5.74 56.89 5.83L56.89 5.83L56.89 5.83Q56.95 5.91 56.98 6.02L56.98 6.02L56.98 6.02Q57.01 6.13 57.01 6.24L57.01 6.24L57.01 6.24Q57.01 6.69 56.76 6.95L56.76 6.95L56.76 6.95Q56.50 7.21 55.93 7.21L55.93 7.21ZM60.45 11.85L60.45 10.18L60.45 10.18Q60.45 10.01 60.34 9.92L60.34 9.92L60.34 9.92Q60.23 9.83 60.06 9.83L60.06 9.83L60.06 9.83Q59.82 9.83 59.61 9.94L59.61 9.94L59.61 9.94Q59.39 10.05 59.23 10.26L59.23 10.26L59.23 10.26Q59.06 10.47 58.97 10.78L58.97 10.78L58.97 10.78Q58.87 11.09 58.87 11.50L58.87 11.50L58.87 11.50Q58.87 11.90 58.93 12.16L58.93 12.16L58.93 12.16Q58.99 12.42 59.09 12.57L59.09 12.57L59.09 12.57Q59.19 12.73 59.32 12.79L59.32 12.79L59.32 12.79Q59.45 12.85 59.59 12.85L59.59 12.85L59.59 12.85Q59.77 12.85 59.92 12.76L59.92 12.76L59.92 12.76Q60.08 12.67 60.20 12.52L60.20 12.52L60.20 12.52Q60.31 12.38 60.38 12.20L60.38 12.20L60.38 12.20Q60.45 12.02 60.45 11.85L60.45 11.85ZM59.36 7.18L59.36 7.18L59.36 7.18Q59.13 7.18 58.93 7.24L58.93 7.24L58.93 7.24Q58.73 7.29 58.59 7.38L58.59 7.38L58.59 7.38Q58.45 7.46 58.37 7.56L58.37 7.56L58.37 7.56Q58.28 7.66 58.28 7.75L58.28 7.75L58.28 7.75Q58.28 7.85 58.39 7.89L58.39 7.89L58.39 7.89Q58.50 7.94 58.63 7.99L58.63 7.99L58.63 7.99Q58.75 8.05 58.86 8.16L58.86 8.16L58.86 8.16Q58.97 8.26 58.97 8.48L58.97 8.48L58.97 8.48Q58.97 8.63 58.91 8.75L58.91 8.75L58.91 8.75Q58.85 8.87 58.75 8.96L58.75 8.96L58.75 8.96Q58.65 9.05 58.52 9.10L58.52 9.10L58.52 9.10Q58.39 9.15 58.24 9.15L58.24 9.15L58.24 9.15Q57.86 9.15 57.62 8.89L57.62 8.89L57.62 8.89Q57.39 8.63 57.39 8.20L57.39 8.20L57.39 8.20Q57.39 7.79 57.61 7.49L57.61 7.49L57.61 7.49Q57.83 7.19 58.18 7L58.18 7L58.18 7Q58.53 6.81 58.97 6.72L58.97 6.72L58.97 6.72Q59.42 6.62 59.86 6.62L59.86 6.62L59.86 6.62Q60.40 6.62 60.88 6.74L60.88 6.74L60.88 6.74Q61.37 6.86 61.74 7.11L61.74 7.11L61.74 7.11Q62.11 7.36 62.33 7.75L62.33 7.75L62.33 7.75Q62.56 8.14 62.56 8.70L62.56 8.70L62.56 12.56L62.56 12.56Q62.56 12.62 62.56 12.69L62.56 12.69L62.56 12.69Q62.57 12.77 62.60 12.83L62.60 12.83L62.60 12.83Q62.62 12.89 62.68 12.93L62.68 12.93L62.68 12.93Q62.73 12.97 62.84 12.97L62.84 12.97L62.84 12.97Q62.96 12.97 63.06 12.88L63.06 12.88L63.06 12.88Q63.17 12.79 63.25 12.69L63.25 12.69L63.42 12.84L63.42 12.84Q63.32 12.98 63.18 13.15L63.18 13.15L63.18 13.15Q63.03 13.32 62.83 13.47L62.83 13.47L62.83 13.47Q62.62 13.62 62.35 13.73L62.35 13.73L62.35 13.73Q62.08 13.83 61.73 13.83L61.73 13.83L61.73 13.83Q61.30 13.83 60.96 13.57L60.96 13.57L60.96 13.57Q60.63 13.32 60.53 12.78L60.53 12.78L60.53 12.78Q60.31 13.08 60.07 13.28L60.07 13.28L60.07 13.28Q59.83 13.47 59.59 13.60L59.59 13.60L59.59 13.60Q59.34 13.72 59.09 13.77L59.09 13.77L59.09 13.77Q58.84 13.83 58.59 13.83L58.59 13.83L58.59 13.83Q58.26 13.83 57.96 13.73L57.96 13.73L57.96 13.73Q57.65 13.62 57.40 13.40L57.40 13.40L57.40 13.40Q57.16 13.18 57.02 12.82L57.02 12.82L57.02 12.82Q56.87 12.47 56.87 11.96L56.87 11.96L56.87 11.96Q56.87 11.33 57.11 10.94L57.11 10.94L57.11 10.94Q57.36 10.54 57.76 10.27L57.76 10.27L57.76 10.27Q58.16 10.00 58.67 9.81L58.67 9.81L58.67 9.81Q59.18 9.62 59.71 9.41L59.71 9.41L59.71 9.41Q60.11 9.25 60.29 8.94L60.29 8.94L60.29 8.94Q60.47 8.63 60.47 8.30L60.47 8.30L60.47 8.30Q60.47 7.79 60.17 7.49L60.17 7.49L60.17 7.49Q59.88 7.18 59.36 7.18ZM67.62 7.21L66.56 7.21L66.56 12.26L66.56 12.26Q66.56 12.63 66.70 12.77L66.70 12.77L66.70 12.77Q66.83 12.91 67.07 12.91L67.07 12.91L67.07 12.91Q67.26 12.91 67.40 12.80L67.40 12.80L67.40 12.80Q67.55 12.70 67.65 12.57L67.65 12.57L67.65 12.57Q67.77 12.43 67.86 12.24L67.86 12.24L68.07 12.33L68.07 12.33Q67.97 12.55 67.83 12.81L67.83 12.81L67.83 12.81Q67.69 13.07 67.46 13.29L67.46 13.29L67.46 13.29Q67.22 13.51 66.87 13.67L66.87 13.67L66.87 13.67Q66.52 13.82 65.99 13.82L65.99 13.82L65.99 13.82Q65.69 13.82 65.41 13.73L65.41 13.73L65.41 13.73Q65.13 13.64 64.92 13.45L64.92 13.45L64.92 13.45Q64.70 13.25 64.57 12.97L64.57 12.97L64.57 12.97Q64.44 12.68 64.44 12.28L64.44 12.28L64.44 7.21L63.68 7.21L63.68 6.72L63.68 6.72Q63.87 6.72 64.21 6.62L64.21 6.62L64.21 6.62Q64.55 6.52 64.91 6.29L64.91 6.29L64.91 6.29Q65.27 6.06 65.58 5.67L65.58 5.67L65.58 5.67Q65.88 5.28 66.01 4.70L66.01 4.70L66.56 4.70L66.56 6.72L67.68 6.72L67.68 6.72Q68.22 6.72 68.22 6.54L68.22 6.54L68.22 6.54Q68.22 6.47 68.15 6.44L68.15 6.44L68.15 6.44Q68.09 6.42 68.00 6.38L68.00 6.38L68.00 6.38Q67.92 6.34 67.85 6.28L67.85 6.28L67.85 6.28Q67.78 6.21 67.78 6.05L67.78 6.05L67.78 6.05Q67.78 5.86 67.90 5.75L67.90 5.75L67.90 5.75Q68.02 5.64 68.21 5.64L68.21 5.64L68.21 5.64Q68.33 5.64 68.42 5.69L68.42 5.69L68.42 5.69Q68.52 5.74 68.58 5.83L68.58 5.83L68.58 5.83Q68.64 5.91 68.67 6.02L68.67 6.02L68.67 6.02Q68.70 6.13 68.70 6.24L68.70 6.24L68.70 6.24Q68.70 6.69 68.44 6.95L68.44 6.95L68.44 6.95Q68.19 7.21 67.62 7.21L67.62 7.21ZM73.39 8.99L70.69 10.58L70.69 10.58Q70.69 10.80 70.76 11.06L70.76 11.06L70.76 11.06Q70.82 11.31 70.94 11.57L70.94 11.57L70.94 11.57Q71.07 11.83 71.25 12.07L71.25 12.07L71.25 12.07Q71.43 12.30 71.66 12.49L71.66 12.49L71.66 12.49Q71.90 12.67 72.19 12.78L72.19 12.78L72.19 12.78Q72.47 12.89 72.82 12.89L72.82 12.89L72.82 12.89Q73.06 12.89 73.26 12.84L73.26 12.84L73.26 12.84Q73.47 12.78 73.64 12.69L73.64 12.69L73.64 12.69Q73.82 12.59 73.99 12.47L73.99 12.47L73.99 12.47Q74.15 12.34 74.31 12.20L74.31 12.20L74.48 12.36L74.48 12.36Q74.33 12.57 74.08 12.82L74.08 12.82L74.08 12.82Q73.83 13.08 73.49 13.30L73.49 13.30L73.49 13.30Q73.14 13.52 72.67 13.67L72.67 13.67L72.67 13.67Q72.21 13.82 71.61 13.82L71.61 13.82L71.61 13.82Q71.02 13.82 70.45 13.60L70.45 13.60L70.45 13.60Q69.89 13.38 69.45 12.95L69.45 12.95L69.45 12.95Q69.02 12.52 68.75 11.88L68.75 11.88L68.75 11.88Q68.49 11.24 68.49 10.38L68.49 10.38L68.49 10.38Q68.49 9.75 68.65 9.24L68.65 9.24L68.65 9.24Q68.80 8.72 69.07 8.30L69.07 8.30L69.07 8.30Q69.34 7.88 69.70 7.57L69.70 7.57L69.70 7.57Q70.06 7.25 70.46 7.04L70.46 7.04L70.46 7.04Q70.85 6.84 71.27 6.73L71.27 6.73L71.27 6.73Q71.68 6.62 72.06 6.62L72.06 6.62L72.06 6.62Q72.57 6.62 72.95 6.73L72.95 6.73L72.95 6.73Q73.32 6.84 73.57 7.03L73.57 7.03L73.57 7.03Q73.82 7.21 73.94 7.45L73.94 7.45L73.94 7.45Q74.07 7.70 74.07 7.96L74.07 7.96L74.07 7.96Q74.07 8.29 73.88 8.54L73.88 8.54L73.88 8.54Q73.70 8.80 73.39 8.99L73.39 8.99ZM70.62 10.02L72.06 9.19L72.06 9.19Q72.15 9.14 72.21 9.09L72.21 9.09L72.21 9.09Q72.27 9.04 72.30 8.97L72.30 8.97L72.30 8.97Q72.34 8.89 72.35 8.79L72.35 8.79L72.35 8.79Q72.37 8.68 72.37 8.52L72.37 8.52L72.37 8.52Q72.37 8.35 72.33 8.15L72.33 8.15L72.33 8.15Q72.30 7.94 72.21 7.75L72.21 7.75L72.21 7.75Q72.12 7.57 71.98 7.44L71.98 7.44L71.98 7.44Q71.85 7.32 71.65 7.32L71.65 7.32L71.65 7.32Q71.41 7.32 71.23 7.47L71.23 7.47L71.23 7.47Q71.06 7.62 70.95 7.85L70.95 7.85L70.95 7.85Q70.83 8.08 70.77 8.38L70.77 8.38L70.77 8.38Q70.70 8.67 70.67 8.98L70.67 8.98L70.67 8.98Q70.64 9.28 70.63 9.55L70.63 9.55L70.63 9.55Q70.62 9.83 70.62 10.02L70.62 10.02Z"></path></g><defs data-v-fde0c5aa=""><!----></defs><g data-v-fde0c5aa="" id="cde8f456-a373-484b-a4bd-2ec32a7197ee" stroke="none" fill="#41E296" transform="matrix(0.11226043989956352,0,0,0.11226043989956352,38.278598455691096,124.76704979066889)"><path d="M232.272 88.949L79.937 223.837v192.749c0 4.979 4.023 8.971 9.001 8.971h95.205v-84.51c0-4.979 3.994-9 8.971-9h78.229c4.978 0 8.97 4.021 8.97 9v84.51h95.235a8.94 8.94 0 0 0 8.972-8.971V223.779L232.272 88.949zm44.056 188.156h-85.096V224.74h85.096v52.365zM79.937 42.699h54.771l-.479 32.438-54.293 49.048V42.699z"></path><path d="M231.388 24.746L15.334 216.053l22.758 25.676 194.18-171.952 194.136 171.952 22.715-25.676-216.01-191.307-.884-.76-.841.76z"></path></g><!----></svg>